Greenberg.2010.LIMITED.720p.BRRiP.x264.ogg.mkv-anoXmous

Format                           : Matroska
File size                        : 702 MiB
Duration                         : 1h 47mn
Overall bit rate                 : 914 Kbps
Writing application              : HandBrake 0.9.5
Writing library                  : libmkv 0.6.4.1

Video
ID                               : 1
Format                           : AVC
Format/Info                      : Advanced Video Codec
Format profile                   : High@L3.1
Format settings, CABAC           : Yes
Format settings, ReFrames        : 4 frames
Codec ID                         : V_MPEG4/ISO/AVC
Duration                         : 1h 47mn
Bit rate                         : 844 Kbps
Width                            : 1 280 pixels
Height                           : 528 pixels
Display aspect ratio             : 2.35:1
Original display aspect ratio    : 2.35:1
Frame rate mode                  : Variable
Frame rate                       : 23.976 fps
Color space                      : YUV
Chroma subsampling               : 4:2:0
Bit depth                        : 8 bits
Scan type                        : Progressive
Bits/(Pixel*Frame)               : 0.052
Stream size                      : 639 MiB (91%)
Writing library                  : x264 core 112
Encoding settings                : cabac=1 / ref=3 / deblock=1:0:0 / analyse=0x3:0x113 

Audio
ID                               : 2
Format                           : Vorbis
Format settings, Floor           : 1
Codec ID                         : A_VORBIS
Duration                         : 1h 47mn
Bit rate mode                    : Constant
Bit rate                         : 64.0 Kbps
Channel(s)                       : 2 channels
Sampling rate                    : 48.0 KHz
Compression mode                 : Lossy
Stream size                      : 49.1 MiB (7%)
Writing library                  : aoTuV Beta 5 
Language                         : English

Text

Format                           : UTF-8
Codec ID                         : S_TEXT/UTF8
Codec ID/Info                    : UTF-8 Plain Text
Language                         : Swedish

Menu
00:00:00.000                     : 00:00:00.000
00:05:38.338                     : 00:05:38.338
00:09:31.613                     : 00:09:31.613
00:14:53.768                     : 00:14:53.768
00:22:16.293                     : 00:22:16.293
00:30:23.739                     : 00:30:23.739
00:32:52.929                     : 00:32:52.929
00:37:46.097                     : 00:37:46.097
00:41:05.463                     : 00:41:05.463
00:46:44.510                     : 00:46:44.510
00:53:31.875                     : 00:53:31.875
00:57:36.244                     : 00:57:36.244
01:02:23.865                     : 01:02:23.865
01:07:36.970                     : 01:07:36.970
01:13:35.119                     : 01:13:35.119
01:19:43.404                     : 01:19:43.404
01:25:37.424                     : 01:25:37.424
01:33:33.900                     : 01:33:33.900
01:38:57.557                     : 01:38:57.557
01:43:02.468                     : 01:43:02.468
 
http://www.imdb.com/title/tt1234654/